inDegrees=no
DataType=double
version=3
OpenSimVersion=4.4-2022-10-11-798caa840
endheader
time	elv_angle	shoulder_elv	shoulder_rot	elbow_flexion	pro_sup	deviation	flexion
2.4020851434	0.4753005523	0.6823322869	0.3996602935	1.4580854232	-0.0767893436	-0.0312955980	0.2309560318
2.4062554301	0.4753005523	0.6823322869	0.3996602935	1.4580854232	-0.0767893436	-0.0312955980	0.2309560318
2.4104257168	0.4753005523	0.6823322869	0.3996602935	1.4580854232	-0.0767893436	-0.0312955980	0.2309560318
2.4145960035	0.4753005523	0.6823322869	0.3996602935	1.4580854232	-0.0767893436	-0.0312955980	0.2309560318
2.4187662902	0.4753005523	0.6823322869	0.3996602935	1.4580854232	-0.0767893436	-0.0312955980	0.2309560318
2.4229365769	0.4753005523	0.6823322869	0.3996602935	1.4580854232	-0.0767893436	-0.0312955980	0.2309560318
2.4271068636	0.4753005523	0.6823322869	0.3996602935	1.4580854232	-0.0767893436	-0.0312955980	0.2309560318
2.4312771503	0.4753005523	0.6823322869	0.3996602935	1.4580854232	-0.0767893436	-0.0312955980	0.2309560318
2.4354474370	0.4753005523	0.6823322869	0.3996602935	1.4580854232	-0.0767893436	-0.0312955980	0.2309560318
2.4396177237	0.4753005523	0.6823322869	0.3996602935	1.4580854232	-0.0767893436	-0.0312955980	0.2309560318
2.4437880104	0.4753005523	0.6823322869	0.3996602935	1.4580854232	-0.0767893436	-0.0312955980	0.2309560318
2.4479582971	0.4753005523	0.6823322869	0.3996602935	1.4580854232	-0.0767893436	-0.0312955980	0.2309560318
2.4521285838	0.4753005523	0.6823322869	0.3996602935	1.4580854232	-0.0767893436	-0.0312955980	0.2309560318
2.4562988705	0.4759775970	0.6746836060	0.4034869257	1.4627814727	-0.0692600847	-0.0291645226	0.2288266077
2.4604691573	0.4748137375	0.6703957294	0.4050983175	1.4659568530	-0.0625134240	-0.0260167675	0.2275777998
2.4646394440	0.4737333343	0.6669618544	0.4049813528	1.4703076456	-0.0562250884	-0.0232613356	0.2253396891
2.4688097307	0.4738045653	0.6624335450	0.4041254550	1.4769520416	-0.0502142790	-0.0215321745	0.2224076042
2.4729800174	0.4737984554	0.6565930804	0.4047106901	1.4826255533	-0.0446528528	-0.0193907071	0.2243191586
2.4771503041	0.4748416570	0.6505168189	0.4056127281	1.4866015102	-0.0389255588	-0.0176191308	0.2237520179
2.4813205908	0.4777158998	0.6450412085	0.4055884588	1.4901564412	-0.0326377052	-0.0174059762	0.2149554289
2.4854908775	0.4788838794	0.6394189266	0.4076683239	1.4940224653	-0.0270631891	-0.0171721908	0.2137615225
2.4896611642	0.4791386531	0.6360184024	0.4094709565	1.4988825146	-0.0229385443	-0.0167416867	0.2178751136
2.4938314509	0.4805271339	0.6345509924	0.4084769666	1.5039706192	-0.0200548951	-0.0165675225	0.2173530323
2.4980017376	0.4828484901	0.6293800202	0.4071732418	1.5068381362	-0.0172202583	-0.0165641730	0.2091271943
2.5021720243	0.4849909491	0.6261873277	0.4088848403	1.5095004347	-0.0128952597	-0.0162251438	0.2002711184
2.5063423110	0.4866427651	0.6271544098	0.4133055695	1.5125878763	-0.0077443789	-0.0154786063	0.1955282404
2.5105125977	0.4885856071	0.6259791192	0.4159743854	1.5135522770	-0.0048004295	-0.0148753820	0.1919863418
2.5146828844	0.4904477521	0.6240977212	0.4153839174	1.5136068099	-0.0045132945	-0.0144653606	0.1865660840
2.5188531712	0.4920260584	0.6227608222	0.4141272113	1.5144685244	-0.0042058357	-0.0139234283	0.1789525106
2.5230234579	0.4935520114	0.6210061003	0.4157953516	1.5164110330	-0.0010014806	-0.0129347220	0.1712057914
2.5271937446	0.4950243923	0.6188063375	0.4171947108	1.5172215145	0.0013411978	-0.0118696979	0.1644592279
2.5313640313	0.4964648285	0.6162779976	0.4165539126	1.5179304143	0.0019663243	-0.0103631737	0.1572187666
2.5355343180	0.4979154232	0.6138333363	0.4150244363	1.5202089748	0.0030586246	-0.0077306995	0.1473969983
2.5397046047	0.4993369206	0.6125896761	0.4153158498	1.5208143893	0.0060031860	-0.0042272954	0.1359087725
2.5438748914	0.5007591811	0.6121947974	0.4167297875	1.5203159061	0.0087195198	-0.0011731689	0.1240555870
2.5480451781	0.5022758171	0.6117735860	0.4175327583	1.5207808524	0.0097557386	0.0006806047	0.1126723972
2.5522154648	0.5039410066	0.6112090992	0.4179930803	1.5220301736	0.0116981265	0.0024358353	0.1017840926
2.5563857515	0.5053229997	0.6107731537	0.4188432107	1.5226451513	0.0127079728	0.0040221861	0.0912071688
2.5605560382	0.5062473166	0.6104898283	0.4200820343	1.5224527857	0.0119422313	0.0050704452	0.0810380704
2.5647263249	0.5071274211	0.6099187192	0.4208286080	1.5231099950	0.0122035665	0.0057076225	0.0716033138
2.5688966116	0.5080337930	0.6089895539	0.4216971842	1.5236009234	0.0126112865	0.0064487621	0.0620531858
2.5730668983	0.5090721120	0.6080259903	0.4226021551	1.5228616276	0.0120776141	0.0077048503	0.0521435880
2.5772371851	0.5104197556	0.6074824678	0.4226228576	1.5211150086	0.0107816523	0.0092325141	0.0429066378
2.5814074718	0.5118711778	0.6072509530	0.4225411347	1.5198378171	0.0093463762	0.0093664321	0.0359843108
2.5855777585	0.5131474565	0.6073375636	0.4225350126	1.5194546816	0.0093142632	0.0086801993	0.0305900354
2.5897480452	0.5140852195	0.6077077740	0.4222436252	1.5195074031	0.0109516783	0.0089274932	0.0248506728
2.5939183319	0.5147823796	0.6077111105	0.4221085169	1.5201001290	0.0097183146	0.0092936466	0.0196830008
